<svg width="532" height="221" viewBox="0 0 532 221" fill="none" xmlns="http://www.w3.org/2000/svg">
<path d="M53 191.762L28.25 121H0L37.5 220H68.6667L106 121H77.8334L53 191.762Z" fill="#129764"/>
<path d="M53 28.2377L28.25 99H0L37.5 0H68.6667L106 99H77.8334L53 28.2377Z" fill="#129764"/>
<path d="M389.91 122.4C404.998 122.4 412.542 130.358 412.542 146.274V158.832C412.542 174.748 404.998 182.706 389.91 182.706H382.734V219H367.554V122.4H389.91ZM382.734 136.2V168.906H389.91C394.878 168.906 397.362 165.87 397.362 159.798V145.308C397.362 139.236 394.878 136.2 389.91 136.2H382.734Z" fill="#3A3A3A"/>
<path d="M324.3 122.4V196.92C324.3 203.176 326.922 206.304 332.166 206.304C337.41 206.304 340.032 203.176 340.032 196.92V122.4H354.384V195.954C354.384 212.146 346.84 220.242 331.752 220.242C316.664 220.242 309.12 212.146 309.12 195.954V122.4H324.3Z" fill="#3A3A3A"/>
<path d="M266.273 196.782C266.273 203.13 268.895 206.304 274.139 206.304C279.383 206.304 282.005 203.13 282.005 196.782V144.618C282.005 138.27 279.383 135.096 274.139 135.096C268.895 135.096 266.273 138.27 266.273 144.618V196.782ZM251.093 145.584C251.093 137.856 253.071 131.876 257.027 127.644C260.983 123.412 266.687 121.296 274.139 121.296C281.591 121.296 287.295 123.412 291.251 127.644C295.207 131.876 297.185 137.856 297.185 145.584V195.816C297.185 203.544 295.207 209.524 291.251 213.756C287.295 217.988 281.591 220.104 274.139 220.104C266.687 220.104 260.983 217.988 257.027 213.756C253.071 209.524 251.093 203.544 251.093 195.816V145.584Z" fill="#3A3A3A"/>
<path d="M225.792 219C224.872 216.24 224.412 212.284 224.412 207.132V191.952C224.412 183.764 221.1 179.67 214.476 179.67H209.232V219H194.052V122.4H216.96C231.956 122.4 239.454 129.806 239.454 144.618V152.208C239.454 162.144 236.142 168.676 229.518 171.804C236.234 174.656 239.592 181.51 239.592 192.366V207.27C239.592 212.514 240.144 216.424 241.248 219H225.792ZM209.232 136.2V165.87H215.166C221.238 165.87 224.274 162.466 224.274 155.658V146.136C224.274 139.512 221.698 136.2 216.546 136.2H209.232Z" fill="#3A3A3A"/>
<path d="M160.29 165.18H181.542V195.816C181.542 212.008 173.998 220.104 158.91 220.104C143.822 220.104 136.278 212.008 136.278 195.816V145.584C136.278 129.392 143.822 121.296 158.91 121.296C173.998 121.296 181.542 129.392 181.542 145.584V154.968H167.19V144.618C167.19 138.27 164.568 135.096 159.324 135.096C154.08 135.096 151.458 138.27 151.458 144.618V196.782C151.458 203.038 154.08 206.166 159.324 206.166C164.568 206.166 167.19 203.038 167.19 196.782V178.98H160.29V165.18Z" fill="#3A3A3A"/>
<path d="M486.609 24.5839C486.609 8.3919 494.061 0.295898 508.965 0.295898C523.869 0.295898 531.321 8.3919 531.321 24.5839V27.6199L516.969 27.6199V23.6179C516.969 17.2699 514.439 14.0959 509.379 14.0959C504.319 14.0959 501.789 17.2699 501.789 23.6179C501.789 27.9419 503.353 32.1279 506.481 36.1759C507.677 37.6479 509.241 39.3499 511.173 41.2819L513.795 43.7659L516.693 46.2499C521.385 50.6659 524.743 54.5759 526.767 57.9799C529.895 63.0399 531.459 68.6519 531.459 74.8159C531.459 91.0079 523.915 99.1039 508.827 99.1039C493.739 99.1039 486.195 91.0079 486.195 74.8159V68.8819H500.547V75.7819C500.547 82.0379 503.169 85.1659 508.413 85.1659C513.657 85.1659 516.279 82.0379 516.279 75.7819C516.279 71.4579 514.715 67.2719 511.587 63.2239C510.391 61.7519 508.827 60.0499 506.895 58.1179L504.273 55.6339L501.513 53.0119C496.729 48.6879 493.325 44.8239 491.301 41.4199C488.173 36.3599 486.609 30.7479 486.609 24.5839Z" fill="#3A3A3A"/>
<path d="M433.614 24.5839C433.614 8.3919 441.066 0.295898 455.97 0.295898C470.874 0.295898 478.326 8.3919 478.326 24.5839V27.6199L463.974 27.6199V23.6179C463.974 17.2699 461.444 14.0959 456.384 14.0959C451.324 14.0959 448.794 17.2699 448.794 23.6179C448.794 27.9419 450.358 32.1279 453.486 36.1759C454.682 37.6479 456.246 39.3499 458.178 41.2819L460.8 43.7659L463.698 46.2499C468.39 50.6659 471.748 54.5759 473.772 57.9799C476.9 63.0399 478.464 68.6519 478.464 74.8159C478.464 91.0079 470.92 99.1039 455.832 99.1039C440.744 99.1039 433.2 91.0079 433.2 74.8159V68.8819H447.552V75.7819C447.552 82.0379 450.174 85.1659 455.418 85.1659C460.662 85.1659 463.284 82.0379 463.284 75.7819C463.284 71.4579 461.72 67.2719 458.592 63.2239C457.396 61.7519 455.832 60.0499 453.9 58.1179L451.278 55.6339L448.518 53.0119C443.734 48.6879 440.33 44.8239 438.306 41.4199C435.178 36.3599 433.614 30.7479 433.614 24.5839Z" fill="#3A3A3A"/>
<path d="M428.477 97.9999H413.159L410.537 80.4739H391.907L389.285 97.9999H375.347L390.803 1.3999L413.021 1.3999L428.477 97.9999ZM393.839 67.3639H408.467L401.153 18.5119L393.839 67.3639Z" fill="#3A3A3A"/>
<path d="M350.763 1.3999C365.851 1.3999 373.395 9.3579 373.395 25.2739V37.8319C373.395 53.7479 365.851 61.7059 350.763 61.7059H343.587V97.9999H328.407V1.3999L350.763 1.3999ZM343.587 15.1999V47.9059H350.763C355.731 47.9059 358.215 44.8699 358.215 38.7979V24.3079C358.215 18.2359 355.731 15.1999 350.763 15.1999L343.587 15.1999Z" fill="#3A3A3A"/>
<path d="M283.141 69.9859L293.491 1.3999L314.605 1.3999V97.9999H300.253V28.7239L289.765 97.9999H275.413L264.097 29.6899V97.9999H250.849V1.3999L271.963 1.3999L283.141 69.9859Z" fill="#3A3A3A"/>
<path d="M207.451 75.7819C207.451 82.1299 210.073 85.3039 215.317 85.3039C220.561 85.3039 223.183 82.1299 223.183 75.7819V23.6179C223.183 17.2699 220.561 14.0959 215.317 14.0959C210.073 14.0959 207.451 17.2699 207.451 23.6179V75.7819ZM192.271 24.5839C192.271 16.8559 194.249 10.8759 198.205 6.64389C202.161 2.4119 207.865 0.295898 215.317 0.295898C222.769 0.295898 228.473 2.4119 232.429 6.64389C236.385 10.8759 238.363 16.8559 238.363 24.5839V74.8159C238.363 82.5439 236.385 88.5239 232.429 92.7559C228.473 96.9879 222.769 99.1039 215.317 99.1039C207.865 99.1039 202.161 96.9879 198.205 92.7559C194.249 88.5239 192.271 82.5439 192.271 74.8159V24.5839Z" fill="#3A3A3A"/>
<path d="M181.542 61.9819V74.8159C181.542 91.0079 173.998 99.1039 158.91 99.1039C143.822 99.1039 136.278 91.0079 136.278 74.8159V24.5839C136.278 8.3919 143.822 0.295898 158.91 0.295898C173.998 0.295898 181.542 8.3919 181.542 24.5839V33.9679H167.19V23.6179C167.19 17.2699 164.568 14.0959 159.324 14.0959C154.08 14.0959 151.458 17.2699 151.458 23.6179V75.7819C151.458 82.0379 154.08 85.1659 159.324 85.1659C164.568 85.1659 167.19 82.0379 167.19 75.7819V61.9819H181.542Z" fill="#3A3A3A"/>
</svg>
