<svg width="491" height="220" viewBox="0 0 491 220" fill="none" xmlns="http://www.w3.org/2000/svg">
<path d="M53 191.762L28.25 121H0L37.5 220H68.6667L106 121H77.8334L53 191.762Z" fill="#129764"/>
<path d="M53 28.2377L28.25 99H0L37.5 0H68.6667L106 99H77.8334L53 28.2377Z" fill="#129764"/>
<path d="M375.867 219H360.687V122.4H408.573V219H393.117V136.2H375.867V219Z" fill="#3A3A3A"/>
<path d="M314.214 219H299.034V122.4H346.92V219H331.464V136.2H314.214V219Z" fill="#3A3A3A"/>
<path d="M273.614 194.436C271.682 203.82 268.784 210.26 264.92 213.756C260.32 217.988 253.006 219.782 242.978 219.138V205.614C247.118 205.89 250.154 205.522 252.086 204.51C254.386 203.314 255.812 201.06 256.364 197.748L256.502 196.92L235.526 122.4H250.568L258.848 155.382L263.54 178.014L267.128 155.52L274.028 122.4H289.898L273.614 194.436Z" fill="#3A3A3A"/>
<path d="M210.278 122.4C225.366 122.4 232.91 130.358 232.91 146.274V158.832C232.91 174.748 225.366 182.706 210.278 182.706H203.102V219H187.922V122.4H210.278ZM203.102 136.2V168.906H210.278C215.246 168.906 217.73 165.87 217.73 159.798V145.308C217.73 139.236 215.246 136.2 210.278 136.2H203.102Z" fill="#3A3A3A"/>
<path d="M137.658 219V122.4H177.678V136.2H152.838V219H137.658Z" fill="#3A3A3A"/>
<path d="M490.047 61.9819V74.8159C490.047 91.0079 482.503 99.1039 467.415 99.1039C452.327 99.1039 444.783 91.0079 444.783 74.8159V24.5839C444.783 8.3919 452.327 0.295898 467.415 0.295898C482.503 0.295898 490.047 8.3919 490.047 24.5839V33.9679H475.695V23.6179C475.695 17.2699 473.073 14.0959 467.829 14.0959C462.585 14.0959 459.963 17.2699 459.963 23.6179V75.7819C459.963 82.0379 462.585 85.1659 467.829 85.1659C473.073 85.1659 475.695 82.0379 475.695 75.7819V61.9819H490.047Z" fill="#3A3A3A"/>
<path d="M438.956 97.9999H423.638L421.016 80.4739H402.386L399.764 97.9999H385.826L401.282 1.3999L423.5 1.3999L438.956 97.9999ZM404.318 67.3639H418.946L411.632 18.5119L404.318 67.3639Z" fill="#3A3A3A"/>
<path d="M344.736 97.9999H329.556V1.3999L377.442 1.3999V97.9999H361.986V15.1999L344.736 15.1999V97.9999Z" fill="#3A3A3A"/>
<path d="M284.29 69.9859L294.64 1.3999L315.754 1.3999V97.9999H301.402V28.7239L290.914 97.9999H276.562L265.246 29.6899V97.9999H251.998V1.3999L273.112 1.3999L284.29 69.9859Z" fill="#3A3A3A"/>
<path d="M208.599 75.7819C208.599 82.1299 211.221 85.3039 216.465 85.3039C221.709 85.3039 224.331 82.1299 224.331 75.7819V23.6179C224.331 17.2699 221.709 14.0959 216.465 14.0959C211.221 14.0959 208.599 17.2699 208.599 23.6179V75.7819ZM193.419 24.5839C193.419 16.8559 195.397 10.8759 199.353 6.64389C203.309 2.4119 209.013 0.295898 216.465 0.295898C223.917 0.295898 229.621 2.4119 233.577 6.64389C237.533 10.8759 239.511 16.8559 239.511 24.5839V74.8159C239.511 82.5439 237.533 88.5239 233.577 92.7559C229.621 96.9879 223.917 99.1039 216.465 99.1039C209.013 99.1039 203.309 96.9879 199.353 92.7559C195.397 88.5239 193.419 82.5439 193.419 74.8159V24.5839Z" fill="#3A3A3A"/>
<path d="M157.392 59.4979L152.7 68.3299V97.9999H137.52V1.3999L152.7 1.3999V43.4899L172.572 1.3999L187.752 1.3999L166.638 44.4559L187.752 97.9999H172.158L157.392 59.4979Z" fill="#3A3A3A"/>
</svg>
